<mxfile host="app.diagrams.net" modified="2020-08-10T13:34:15.942Z" agent="5.0 (Windows NT 10.0; Win64; x64) AppleWebKit/537.36 (KHTML, like Gecko) Chrome/84.0.4147.105 Safari/537.36" etag="uFhxDtExpdlsLqgEN0ZF" version="13.6.2" type="github" pages="2">
  <diagram id="Moppq4OoeFAXi4hIpl8P" name="Page-1">
    <mxGraphModel dx="868" dy="433" grid="1" gridSize="10" guides="1" tooltips="1" connect="1" arrows="1" fold="1" page="1" pageScale="1" pageWidth="827" pageHeight="1169" math="0" shadow="0">
      <root>
        <mxCell id="0" />
        <mxCell id="1" parent="0" />
        <mxCell id="TMVQ5jgf_N_QzKySqQF9-1" value="&lt;b&gt;Customer&lt;/b&gt;&lt;br&gt;" style="rounded=0;whiteSpace=wrap;html=1;align=left;" parent="1" vertex="1">
          <mxGeometry x="40" y="40" width="120" height="20" as="geometry" />
        </mxCell>
        <mxCell id="TMVQ5jgf_N_QzKySqQF9-2" value="&lt;b&gt;Installation&lt;/b&gt;" style="rounded=0;whiteSpace=wrap;html=1;align=left;" parent="1" vertex="1">
          <mxGeometry x="40" y="250" width="120" height="20" as="geometry" />
        </mxCell>
        <mxCell id="TMVQ5jgf_N_QzKySqQF9-3" value="&lt;b&gt;InstallationNotes&lt;/b&gt;" style="rounded=0;whiteSpace=wrap;html=1;align=left;" parent="1" vertex="1">
          <mxGeometry x="290" y="250" width="120" height="20" as="geometry" />
        </mxCell>
        <mxCell id="TMVQ5jgf_N_QzKySqQF9-4" value="&lt;b&gt;Address&lt;/b&gt;" style="rounded=0;whiteSpace=wrap;html=1;align=left;" parent="1" vertex="1">
          <mxGeometry x="290" y="40" width="120" height="20" as="geometry" />
        </mxCell>
        <mxCell id="TMVQ5jgf_N_QzKySqQF9-34" style="edgeStyle=orthogonalEdgeStyle;rounded=0;orthogonalLoop=1;jettySize=auto;html=1;exitX=1;exitY=0.5;exitDx=0;exitDy=0;entryX=1;entryY=0.5;entryDx=0;entryDy=0;" parent="1" source="TMVQ5jgf_N_QzKySqQF9-5" target="TMVQ5jgf_N_QzKySqQF9-23" edge="1">
          <mxGeometry relative="1" as="geometry" />
        </mxCell>
        <mxCell id="TMVQ5jgf_N_QzKySqQF9-5" value="- Id" style="rounded=0;whiteSpace=wrap;html=1;align=left;" parent="1" vertex="1">
          <mxGeometry x="40" y="60" width="120" height="15" as="geometry" />
        </mxCell>
        <mxCell id="TMVQ5jgf_N_QzKySqQF9-6" value="- Name" style="rounded=0;whiteSpace=wrap;html=1;align=left;" parent="1" vertex="1">
          <mxGeometry x="40" y="75" width="120" height="15" as="geometry" />
        </mxCell>
        <mxCell id="TMVQ5jgf_N_QzKySqQF9-9" value="- ClientNumber" style="rounded=0;whiteSpace=wrap;html=1;align=left;" parent="1" vertex="1">
          <mxGeometry x="40" y="90" width="120" height="15" as="geometry" />
        </mxCell>
        <mxCell id="TMVQ5jgf_N_QzKySqQF9-10" value="- DateCreated" style="rounded=0;whiteSpace=wrap;html=1;align=left;" parent="1" vertex="1">
          <mxGeometry x="40" y="105" width="120" height="15" as="geometry" />
        </mxCell>
        <mxCell id="TMVQ5jgf_N_QzKySqQF9-11" value="- Note" style="rounded=0;whiteSpace=wrap;html=1;align=left;" parent="1" vertex="1">
          <mxGeometry x="40" y="120" width="120" height="15" as="geometry" />
        </mxCell>
        <mxCell id="TMVQ5jgf_N_QzKySqQF9-39" style="rounded=0;orthogonalLoop=1;jettySize=auto;html=1;exitX=1;exitY=0.5;exitDx=0;exitDy=0;entryX=0;entryY=0.5;entryDx=0;entryDy=0;" parent="1" source="TMVQ5jgf_N_QzKySqQF9-12" target="TMVQ5jgf_N_QzKySqQF9-16" edge="1">
          <mxGeometry relative="1" as="geometry">
            <mxPoint x="270" y="80" as="targetPoint" />
          </mxGeometry>
        </mxCell>
        <mxCell id="TMVQ5jgf_N_QzKySqQF9-12" value="- AddressId" style="rounded=0;whiteSpace=wrap;html=1;align=left;" parent="1" vertex="1">
          <mxGeometry x="40" y="135" width="120" height="15" as="geometry" />
        </mxCell>
        <mxCell id="TMVQ5jgf_N_QzKySqQF9-13" value="- Phone" style="rounded=0;whiteSpace=wrap;html=1;align=left;" parent="1" vertex="1">
          <mxGeometry x="40" y="150" width="120" height="15" as="geometry" />
        </mxCell>
        <mxCell id="TMVQ5jgf_N_QzKySqQF9-14" value="- PhoneMobile" style="rounded=0;whiteSpace=wrap;html=1;align=left;" parent="1" vertex="1">
          <mxGeometry x="40" y="165" width="120" height="15" as="geometry" />
        </mxCell>
        <mxCell id="TMVQ5jgf_N_QzKySqQF9-15" value="- Email" style="rounded=0;whiteSpace=wrap;html=1;align=left;" parent="1" vertex="1">
          <mxGeometry x="40" y="180" width="120" height="15" as="geometry" />
        </mxCell>
        <mxCell id="TMVQ5jgf_N_QzKySqQF9-16" value="- Id" style="rounded=0;whiteSpace=wrap;html=1;align=left;" parent="1" vertex="1">
          <mxGeometry x="290" y="60" width="120" height="15" as="geometry" />
        </mxCell>
        <mxCell id="TMVQ5jgf_N_QzKySqQF9-17" value="- Street" style="rounded=0;whiteSpace=wrap;html=1;align=left;" parent="1" vertex="1">
          <mxGeometry x="290" y="75" width="120" height="15" as="geometry" />
        </mxCell>
        <mxCell id="TMVQ5jgf_N_QzKySqQF9-18" value="- Number" style="rounded=0;whiteSpace=wrap;html=1;align=left;" parent="1" vertex="1">
          <mxGeometry x="290" y="90" width="120" height="15" as="geometry" />
        </mxCell>
        <mxCell id="TMVQ5jgf_N_QzKySqQF9-19" value="- PostalCode" style="rounded=0;whiteSpace=wrap;html=1;align=left;" parent="1" vertex="1">
          <mxGeometry x="290" y="105" width="120" height="15" as="geometry" />
        </mxCell>
        <mxCell id="TMVQ5jgf_N_QzKySqQF9-20" value="- City" style="rounded=0;whiteSpace=wrap;html=1;align=left;" parent="1" vertex="1">
          <mxGeometry x="290" y="120" width="120" height="15" as="geometry" />
        </mxCell>
        <mxCell id="TMVQ5jgf_N_QzKySqQF9-21" value="- Country" style="rounded=0;whiteSpace=wrap;html=1;align=left;" parent="1" vertex="1">
          <mxGeometry x="290" y="135" width="120" height="15" as="geometry" />
        </mxCell>
        <mxCell id="TMVQ5jgf_N_QzKySqQF9-41" style="rounded=0;orthogonalLoop=1;jettySize=auto;html=1;exitX=1;exitY=0.5;exitDx=0;exitDy=0;entryX=0;entryY=0.5;entryDx=0;entryDy=0;" parent="1" source="TMVQ5jgf_N_QzKySqQF9-22" target="TMVQ5jgf_N_QzKySqQF9-28" edge="1">
          <mxGeometry relative="1" as="geometry" />
        </mxCell>
        <mxCell id="TMVQ5jgf_N_QzKySqQF9-22" value="- Id" style="rounded=0;whiteSpace=wrap;html=1;align=left;" parent="1" vertex="1">
          <mxGeometry x="40" y="270" width="120" height="15" as="geometry" />
        </mxCell>
        <mxCell id="TMVQ5jgf_N_QzKySqQF9-23" value="- CustomerId" style="rounded=0;whiteSpace=wrap;html=1;align=left;" parent="1" vertex="1">
          <mxGeometry x="40" y="285" width="120" height="15" as="geometry" />
        </mxCell>
        <mxCell id="TMVQ5jgf_N_QzKySqQF9-24" value="- DateCreated" style="rounded=0;whiteSpace=wrap;html=1;align=left;" parent="1" vertex="1">
          <mxGeometry x="40" y="300" width="120" height="15" as="geometry" />
        </mxCell>
        <mxCell id="TMVQ5jgf_N_QzKySqQF9-25" value="- DateCompleted" style="rounded=0;whiteSpace=wrap;html=1;align=left;" parent="1" vertex="1">
          <mxGeometry x="40" y="315" width="120" height="15" as="geometry" />
        </mxCell>
        <mxCell id="TMVQ5jgf_N_QzKySqQF9-26" value="- Description" style="rounded=0;whiteSpace=wrap;html=1;align=left;" parent="1" vertex="1">
          <mxGeometry x="40" y="330" width="120" height="15" as="geometry" />
        </mxCell>
        <mxCell id="TMVQ5jgf_N_QzKySqQF9-36" style="rounded=0;orthogonalLoop=1;jettySize=auto;html=1;exitX=1;exitY=0.5;exitDx=0;exitDy=0;entryX=0;entryY=0.5;entryDx=0;entryDy=0;" parent="1" source="TMVQ5jgf_N_QzKySqQF9-27" target="TMVQ5jgf_N_QzKySqQF9-16" edge="1">
          <mxGeometry relative="1" as="geometry" />
        </mxCell>
        <mxCell id="TMVQ5jgf_N_QzKySqQF9-27" value="- AddressId" style="rounded=0;whiteSpace=wrap;html=1;align=left;" parent="1" vertex="1">
          <mxGeometry x="40" y="345" width="120" height="15" as="geometry" />
        </mxCell>
        <mxCell id="TMVQ5jgf_N_QzKySqQF9-28" value="- Id" style="rounded=0;whiteSpace=wrap;html=1;align=left;" parent="1" vertex="1">
          <mxGeometry x="290" y="270" width="120" height="15" as="geometry" />
        </mxCell>
        <mxCell id="TMVQ5jgf_N_QzKySqQF9-29" value="- InstallationId" style="rounded=0;whiteSpace=wrap;html=1;align=left;" parent="1" vertex="1">
          <mxGeometry x="290" y="285" width="120" height="15" as="geometry" />
        </mxCell>
        <mxCell id="TMVQ5jgf_N_QzKySqQF9-30" value="- DateCreated" style="rounded=0;whiteSpace=wrap;html=1;align=left;" parent="1" vertex="1">
          <mxGeometry x="290" y="300" width="120" height="15" as="geometry" />
        </mxCell>
        <mxCell id="TMVQ5jgf_N_QzKySqQF9-54" style="rounded=0;orthogonalLoop=1;jettySize=auto;html=1;exitX=1;exitY=0.5;exitDx=0;exitDy=0;entryX=0;entryY=0.5;entryDx=0;entryDy=0;" parent="1" source="TMVQ5jgf_N_QzKySqQF9-31" target="TMVQ5jgf_N_QzKySqQF9-46" edge="1">
          <mxGeometry relative="1" as="geometry" />
        </mxCell>
        <mxCell id="TMVQ5jgf_N_QzKySqQF9-31" value="- EmployeeId" style="rounded=0;whiteSpace=wrap;html=1;align=left;" parent="1" vertex="1">
          <mxGeometry x="290" y="315" width="120" height="15" as="geometry" />
        </mxCell>
        <mxCell id="TMVQ5jgf_N_QzKySqQF9-32" value="- Text" style="rounded=0;whiteSpace=wrap;html=1;align=left;" parent="1" vertex="1">
          <mxGeometry x="290" y="330" width="120" height="15" as="geometry" />
        </mxCell>
        <mxCell id="TMVQ5jgf_N_QzKySqQF9-35" value="1:N" style="text;html=1;align=center;verticalAlign=middle;resizable=0;points=[];autosize=1;" parent="1" vertex="1">
          <mxGeometry x="175" y="177.5" width="30" height="20" as="geometry" />
        </mxCell>
        <mxCell id="TMVQ5jgf_N_QzKySqQF9-37" value="1:1" style="text;html=1;align=center;verticalAlign=middle;resizable=0;points=[];autosize=1;" parent="1" vertex="1">
          <mxGeometry x="230" y="177.5" width="30" height="20" as="geometry" />
        </mxCell>
        <mxCell id="TMVQ5jgf_N_QzKySqQF9-40" value="1:1" style="text;html=1;align=center;verticalAlign=middle;resizable=0;points=[];autosize=1;" parent="1" vertex="1">
          <mxGeometry x="210" y="85" width="30" height="20" as="geometry" />
        </mxCell>
        <mxCell id="TMVQ5jgf_N_QzKySqQF9-42" value="1:N" style="text;html=1;align=center;verticalAlign=middle;resizable=0;points=[];autosize=1;" parent="1" vertex="1">
          <mxGeometry x="230" y="260" width="30" height="20" as="geometry" />
        </mxCell>
        <mxCell id="TMVQ5jgf_N_QzKySqQF9-45" value="&lt;b&gt;Employees&lt;/b&gt;" style="rounded=0;whiteSpace=wrap;html=1;align=left;" parent="1" vertex="1">
          <mxGeometry x="460" y="205" width="120" height="20" as="geometry" />
        </mxCell>
        <mxCell id="TMVQ5jgf_N_QzKySqQF9-46" value="- Id" style="rounded=0;whiteSpace=wrap;html=1;align=left;" parent="1" vertex="1">
          <mxGeometry x="460" y="225" width="120" height="15" as="geometry" />
        </mxCell>
        <mxCell id="TMVQ5jgf_N_QzKySqQF9-47" value="- Name" style="rounded=0;whiteSpace=wrap;html=1;align=left;" parent="1" vertex="1">
          <mxGeometry x="460" y="240" width="120" height="15" as="geometry" />
        </mxCell>
        <mxCell id="TMVQ5jgf_N_QzKySqQF9-48" value="- Email" style="rounded=0;whiteSpace=wrap;html=1;align=left;" parent="1" vertex="1">
          <mxGeometry x="460" y="255" width="120" height="15" as="geometry" />
        </mxCell>
        <mxCell id="TMVQ5jgf_N_QzKySqQF9-49" value="- Phone" style="rounded=0;whiteSpace=wrap;html=1;align=left;" parent="1" vertex="1">
          <mxGeometry x="460" y="270" width="120" height="15" as="geometry" />
        </mxCell>
        <mxCell id="TMVQ5jgf_N_QzKySqQF9-50" value="- PhoneMobile" style="rounded=0;whiteSpace=wrap;html=1;align=left;" parent="1" vertex="1">
          <mxGeometry x="460" y="285" width="120" height="15" as="geometry" />
        </mxCell>
        <mxCell id="TMVQ5jgf_N_QzKySqQF9-65" style="edgeStyle=none;rounded=0;orthogonalLoop=1;jettySize=auto;html=1;exitX=1;exitY=0.5;exitDx=0;exitDy=0;entryX=0;entryY=0.5;entryDx=0;entryDy=0;" parent="1" source="TMVQ5jgf_N_QzKySqQF9-51" target="TMVQ5jgf_N_QzKySqQF9-57" edge="1">
          <mxGeometry relative="1" as="geometry" />
        </mxCell>
        <mxCell id="TMVQ5jgf_N_QzKySqQF9-51" value="- RoleId" style="rounded=0;whiteSpace=wrap;html=1;align=left;" parent="1" vertex="1">
          <mxGeometry x="460" y="300" width="120" height="15" as="geometry" />
        </mxCell>
        <mxCell id="TMVQ5jgf_N_QzKySqQF9-52" value="- DateCreated" style="rounded=0;whiteSpace=wrap;html=1;align=left;" parent="1" vertex="1">
          <mxGeometry x="460" y="315" width="120" height="15" as="geometry" />
        </mxCell>
        <mxCell id="TMVQ5jgf_N_QzKySqQF9-53" value="- ..." style="rounded=0;whiteSpace=wrap;html=1;align=left;" parent="1" vertex="1">
          <mxGeometry x="460" y="330" width="120" height="15" as="geometry" />
        </mxCell>
        <mxCell id="TMVQ5jgf_N_QzKySqQF9-55" value="N:1" style="text;html=1;align=center;verticalAlign=middle;resizable=0;points=[];autosize=1;" parent="1" vertex="1">
          <mxGeometry x="410" y="260" width="30" height="20" as="geometry" />
        </mxCell>
        <mxCell id="TMVQ5jgf_N_QzKySqQF9-56" value="&lt;b&gt;Roles&lt;/b&gt;" style="rounded=0;whiteSpace=wrap;html=1;align=left;" parent="1" vertex="1">
          <mxGeometry x="620" y="280" width="120" height="20" as="geometry" />
        </mxCell>
        <mxCell id="TMVQ5jgf_N_QzKySqQF9-57" value="- Id" style="rounded=0;whiteSpace=wrap;html=1;align=left;" parent="1" vertex="1">
          <mxGeometry x="620" y="300" width="120" height="15" as="geometry" />
        </mxCell>
        <mxCell id="TMVQ5jgf_N_QzKySqQF9-58" value="- ..." style="rounded=0;whiteSpace=wrap;html=1;align=left;" parent="1" vertex="1">
          <mxGeometry x="620" y="315" width="120" height="15" as="geometry" />
        </mxCell>
        <mxCell id="TMVQ5jgf_N_QzKySqQF9-66" value="N:1" style="text;html=1;align=center;verticalAlign=middle;resizable=0;points=[];autosize=1;" parent="1" vertex="1">
          <mxGeometry x="580" y="290" width="30" height="20" as="geometry" />
        </mxCell>
      </root>
    </mxGraphModel>
  </diagram>
  <diagram id="DDfRu9pR-mYWWbXUiUeC" name="Page-2">
    <mxGraphModel dx="868" dy="433" grid="1" gridSize="10" guides="1" tooltips="1" connect="1" arrows="1" fold="1" page="1" pageScale="1" pageWidth="827" pageHeight="1169" math="0" shadow="0">
      <root>
        <mxCell id="MrkqH63gfhFUiDKeLNYQ-0" />
        <mxCell id="MrkqH63gfhFUiDKeLNYQ-1" parent="MrkqH63gfhFUiDKeLNYQ-0" />
        <mxCell id="MrkqH63gfhFUiDKeLNYQ-2" value="&lt;b&gt;Customer&lt;/b&gt;&lt;br&gt;" style="rounded=0;whiteSpace=wrap;html=1;align=left;" parent="MrkqH63gfhFUiDKeLNYQ-1" vertex="1">
          <mxGeometry x="40" y="40" width="120" height="20" as="geometry" />
        </mxCell>
        <mxCell id="MrkqH63gfhFUiDKeLNYQ-3" value="&lt;b&gt;Installation&lt;/b&gt;" style="rounded=0;whiteSpace=wrap;html=1;align=left;" parent="MrkqH63gfhFUiDKeLNYQ-1" vertex="1">
          <mxGeometry x="40" y="285" width="120" height="20" as="geometry" />
        </mxCell>
        <mxCell id="MrkqH63gfhFUiDKeLNYQ-4" value="&lt;b&gt;InstallationNotes&lt;/b&gt;" style="rounded=0;whiteSpace=wrap;html=1;align=left;" parent="MrkqH63gfhFUiDKeLNYQ-1" vertex="1">
          <mxGeometry x="290" y="285" width="120" height="20" as="geometry" />
        </mxCell>
        <mxCell id="MrkqH63gfhFUiDKeLNYQ-5" style="edgeStyle=orthogonalEdgeStyle;rounded=0;orthogonalLoop=1;jettySize=auto;html=1;exitX=1;exitY=0.5;exitDx=0;exitDy=0;entryX=1;entryY=0.5;entryDx=0;entryDy=0;" parent="MrkqH63gfhFUiDKeLNYQ-1" source="MrkqH63gfhFUiDKeLNYQ-6" target="MrkqH63gfhFUiDKeLNYQ-21" edge="1">
          <mxGeometry relative="1" as="geometry" />
        </mxCell>
        <mxCell id="MrkqH63gfhFUiDKeLNYQ-6" value="- Id" style="rounded=0;whiteSpace=wrap;html=1;align=left;" parent="MrkqH63gfhFUiDKeLNYQ-1" vertex="1">
          <mxGeometry x="40" y="60" width="120" height="15" as="geometry" />
        </mxCell>
        <mxCell id="MrkqH63gfhFUiDKeLNYQ-7" value="- Name" style="rounded=0;whiteSpace=wrap;html=1;align=left;" parent="MrkqH63gfhFUiDKeLNYQ-1" vertex="1">
          <mxGeometry x="40" y="75" width="120" height="15" as="geometry" />
        </mxCell>
        <mxCell id="MrkqH63gfhFUiDKeLNYQ-8" value="- ClientNumber" style="rounded=0;whiteSpace=wrap;html=1;align=left;" parent="MrkqH63gfhFUiDKeLNYQ-1" vertex="1">
          <mxGeometry x="40" y="90" width="120" height="15" as="geometry" />
        </mxCell>
        <mxCell id="MrkqH63gfhFUiDKeLNYQ-9" value="- DateCreated" style="rounded=0;whiteSpace=wrap;html=1;align=left;" parent="MrkqH63gfhFUiDKeLNYQ-1" vertex="1">
          <mxGeometry x="40" y="105" width="120" height="15" as="geometry" />
        </mxCell>
        <mxCell id="MrkqH63gfhFUiDKeLNYQ-10" value="- Note" style="rounded=0;whiteSpace=wrap;html=1;align=left;" parent="MrkqH63gfhFUiDKeLNYQ-1" vertex="1">
          <mxGeometry x="40" y="120" width="120" height="15" as="geometry" />
        </mxCell>
        <mxCell id="MrkqH63gfhFUiDKeLNYQ-11" value="- Phone" style="rounded=0;whiteSpace=wrap;html=1;align=left;" parent="MrkqH63gfhFUiDKeLNYQ-1" vertex="1">
          <mxGeometry x="40" y="135" width="120" height="15" as="geometry" />
        </mxCell>
        <mxCell id="MrkqH63gfhFUiDKeLNYQ-12" value="- PhoneMobile" style="rounded=0;whiteSpace=wrap;html=1;align=left;" parent="MrkqH63gfhFUiDKeLNYQ-1" vertex="1">
          <mxGeometry x="40" y="150" width="120" height="15" as="geometry" />
        </mxCell>
        <mxCell id="MrkqH63gfhFUiDKeLNYQ-13" value="- Email" style="rounded=0;whiteSpace=wrap;html=1;align=left;" parent="MrkqH63gfhFUiDKeLNYQ-1" vertex="1">
          <mxGeometry x="40" y="165" width="120" height="15" as="geometry" />
        </mxCell>
        <mxCell id="MrkqH63gfhFUiDKeLNYQ-14" value="- Street" style="rounded=0;whiteSpace=wrap;html=1;align=left;fillColor=#f5f5f5;strokeColor=#666666;fontColor=#333333;" parent="MrkqH63gfhFUiDKeLNYQ-1" vertex="1">
          <mxGeometry x="40" y="180" width="120" height="15" as="geometry" />
        </mxCell>
        <mxCell id="MrkqH63gfhFUiDKeLNYQ-15" value="- Number" style="rounded=0;whiteSpace=wrap;html=1;align=left;fillColor=#f5f5f5;strokeColor=#666666;fontColor=#333333;" parent="MrkqH63gfhFUiDKeLNYQ-1" vertex="1">
          <mxGeometry x="40" y="195" width="120" height="15" as="geometry" />
        </mxCell>
        <mxCell id="MrkqH63gfhFUiDKeLNYQ-16" value="- PostalCode" style="rounded=0;whiteSpace=wrap;html=1;align=left;fillColor=#f5f5f5;strokeColor=#666666;fontColor=#333333;" parent="MrkqH63gfhFUiDKeLNYQ-1" vertex="1">
          <mxGeometry x="40" y="210" width="120" height="15" as="geometry" />
        </mxCell>
        <mxCell id="MrkqH63gfhFUiDKeLNYQ-17" value="- City" style="rounded=0;whiteSpace=wrap;html=1;align=left;fillColor=#f5f5f5;strokeColor=#666666;fontColor=#333333;" parent="MrkqH63gfhFUiDKeLNYQ-1" vertex="1">
          <mxGeometry x="40" y="225" width="120" height="15" as="geometry" />
        </mxCell>
        <mxCell id="MrkqH63gfhFUiDKeLNYQ-18" value="- Country" style="rounded=0;whiteSpace=wrap;html=1;align=left;fillColor=#f5f5f5;strokeColor=#666666;fontColor=#333333;" parent="MrkqH63gfhFUiDKeLNYQ-1" vertex="1">
          <mxGeometry x="40" y="240" width="120" height="15" as="geometry" />
        </mxCell>
        <mxCell id="MrkqH63gfhFUiDKeLNYQ-19" style="edgeStyle=none;rounded=0;orthogonalLoop=1;jettySize=auto;html=1;exitX=1;exitY=0.5;exitDx=0;exitDy=0;entryX=0;entryY=0.5;entryDx=0;entryDy=0;" parent="MrkqH63gfhFUiDKeLNYQ-1" source="MrkqH63gfhFUiDKeLNYQ-20" target="MrkqH63gfhFUiDKeLNYQ-25" edge="1">
          <mxGeometry relative="1" as="geometry" />
        </mxCell>
        <mxCell id="MrkqH63gfhFUiDKeLNYQ-20" value="- Id" style="rounded=0;whiteSpace=wrap;html=1;align=left;" parent="MrkqH63gfhFUiDKeLNYQ-1" vertex="1">
          <mxGeometry x="40" y="305" width="120" height="15" as="geometry" />
        </mxCell>
        <mxCell id="MrkqH63gfhFUiDKeLNYQ-21" value="- CustomerId" style="rounded=0;whiteSpace=wrap;html=1;align=left;" parent="MrkqH63gfhFUiDKeLNYQ-1" vertex="1">
          <mxGeometry x="40" y="320" width="120" height="15" as="geometry" />
        </mxCell>
        <mxCell id="MrkqH63gfhFUiDKeLNYQ-22" value="- DateCreated" style="rounded=0;whiteSpace=wrap;html=1;align=left;" parent="MrkqH63gfhFUiDKeLNYQ-1" vertex="1">
          <mxGeometry x="40" y="335" width="120" height="15" as="geometry" />
        </mxCell>
        <mxCell id="MrkqH63gfhFUiDKeLNYQ-23" value="- DateCompleted" style="rounded=0;whiteSpace=wrap;html=1;align=left;" parent="MrkqH63gfhFUiDKeLNYQ-1" vertex="1">
          <mxGeometry x="40" y="350" width="120" height="15" as="geometry" />
        </mxCell>
        <mxCell id="MrkqH63gfhFUiDKeLNYQ-24" value="- Description" style="rounded=0;whiteSpace=wrap;html=1;align=left;" parent="MrkqH63gfhFUiDKeLNYQ-1" vertex="1">
          <mxGeometry x="40" y="365" width="120" height="15" as="geometry" />
        </mxCell>
        <mxCell id="MrkqH63gfhFUiDKeLNYQ-25" value="- Id" style="rounded=0;whiteSpace=wrap;html=1;align=left;" parent="MrkqH63gfhFUiDKeLNYQ-1" vertex="1">
          <mxGeometry x="290" y="305" width="120" height="15" as="geometry" />
        </mxCell>
        <mxCell id="MrkqH63gfhFUiDKeLNYQ-26" value="- InstallationId" style="rounded=0;whiteSpace=wrap;html=1;align=left;" parent="MrkqH63gfhFUiDKeLNYQ-1" vertex="1">
          <mxGeometry x="290" y="320" width="120" height="15" as="geometry" />
        </mxCell>
        <mxCell id="MrkqH63gfhFUiDKeLNYQ-27" value="- DateCreated" style="rounded=0;whiteSpace=wrap;html=1;align=left;" parent="MrkqH63gfhFUiDKeLNYQ-1" vertex="1">
          <mxGeometry x="290" y="335" width="120" height="15" as="geometry" />
        </mxCell>
        <mxCell id="MrkqH63gfhFUiDKeLNYQ-28" style="rounded=0;orthogonalLoop=1;jettySize=auto;html=1;exitX=1;exitY=0.5;exitDx=0;exitDy=0;entryX=0;entryY=0.5;entryDx=0;entryDy=0;" parent="MrkqH63gfhFUiDKeLNYQ-1" source="MrkqH63gfhFUiDKeLNYQ-29" target="MrkqH63gfhFUiDKeLNYQ-32" edge="1">
          <mxGeometry relative="1" as="geometry" />
        </mxCell>
        <mxCell id="MrkqH63gfhFUiDKeLNYQ-29" value="- EmployeeId" style="rounded=0;whiteSpace=wrap;html=1;align=left;" parent="MrkqH63gfhFUiDKeLNYQ-1" vertex="1">
          <mxGeometry x="290" y="350" width="120" height="15" as="geometry" />
        </mxCell>
        <mxCell id="MrkqH63gfhFUiDKeLNYQ-30" value="- Text" style="rounded=0;whiteSpace=wrap;html=1;align=left;" parent="MrkqH63gfhFUiDKeLNYQ-1" vertex="1">
          <mxGeometry x="290" y="365" width="120" height="15" as="geometry" />
        </mxCell>
        <mxCell id="MrkqH63gfhFUiDKeLNYQ-31" value="&lt;b&gt;Employees&lt;/b&gt;" style="rounded=0;whiteSpace=wrap;html=1;align=left;" parent="MrkqH63gfhFUiDKeLNYQ-1" vertex="1">
          <mxGeometry x="460" y="285" width="120" height="20" as="geometry" />
        </mxCell>
        <mxCell id="MrkqH63gfhFUiDKeLNYQ-32" value="- Id" style="rounded=0;whiteSpace=wrap;html=1;align=left;" parent="MrkqH63gfhFUiDKeLNYQ-1" vertex="1">
          <mxGeometry x="460" y="305" width="120" height="15" as="geometry" />
        </mxCell>
        <mxCell id="MrkqH63gfhFUiDKeLNYQ-33" value="- Name" style="rounded=0;whiteSpace=wrap;html=1;align=left;" parent="MrkqH63gfhFUiDKeLNYQ-1" vertex="1">
          <mxGeometry x="460" y="320" width="120" height="15" as="geometry" />
        </mxCell>
        <mxCell id="MrkqH63gfhFUiDKeLNYQ-34" value="- Email" style="rounded=0;whiteSpace=wrap;html=1;align=left;" parent="MrkqH63gfhFUiDKeLNYQ-1" vertex="1">
          <mxGeometry x="460" y="335" width="120" height="15" as="geometry" />
        </mxCell>
        <mxCell id="MrkqH63gfhFUiDKeLNYQ-35" value="- Phone" style="rounded=0;whiteSpace=wrap;html=1;align=left;" parent="MrkqH63gfhFUiDKeLNYQ-1" vertex="1">
          <mxGeometry x="460" y="350" width="120" height="15" as="geometry" />
        </mxCell>
        <mxCell id="MrkqH63gfhFUiDKeLNYQ-36" value="- PhoneMobile" style="rounded=0;whiteSpace=wrap;html=1;align=left;" parent="MrkqH63gfhFUiDKeLNYQ-1" vertex="1">
          <mxGeometry x="460" y="365" width="120" height="15" as="geometry" />
        </mxCell>
        <mxCell id="MrkqH63gfhFUiDKeLNYQ-37" style="edgeStyle=none;rounded=0;orthogonalLoop=1;jettySize=auto;html=1;exitX=1;exitY=0.5;exitDx=0;exitDy=0;entryX=0;entryY=0.5;entryDx=0;entryDy=0;" parent="MrkqH63gfhFUiDKeLNYQ-1" source="MrkqH63gfhFUiDKeLNYQ-38" target="MrkqH63gfhFUiDKeLNYQ-43" edge="1">
          <mxGeometry relative="1" as="geometry" />
        </mxCell>
        <mxCell id="MrkqH63gfhFUiDKeLNYQ-38" value="- RoleId" style="rounded=0;whiteSpace=wrap;html=1;align=left;" parent="MrkqH63gfhFUiDKeLNYQ-1" vertex="1">
          <mxGeometry x="460" y="380" width="120" height="15" as="geometry" />
        </mxCell>
        <mxCell id="MrkqH63gfhFUiDKeLNYQ-39" value="- DateCreated" style="rounded=0;whiteSpace=wrap;html=1;align=left;" parent="MrkqH63gfhFUiDKeLNYQ-1" vertex="1">
          <mxGeometry x="460" y="395" width="120" height="15" as="geometry" />
        </mxCell>
        <mxCell id="MrkqH63gfhFUiDKeLNYQ-40" value="- ..." style="rounded=0;whiteSpace=wrap;html=1;align=left;" parent="MrkqH63gfhFUiDKeLNYQ-1" vertex="1">
          <mxGeometry x="460" y="410" width="120" height="15" as="geometry" />
        </mxCell>
        <mxCell id="MrkqH63gfhFUiDKeLNYQ-41" value="N:1" style="text;html=1;align=center;verticalAlign=middle;resizable=0;points=[];autosize=1;" parent="MrkqH63gfhFUiDKeLNYQ-1" vertex="1">
          <mxGeometry x="410" y="315" width="30" height="20" as="geometry" />
        </mxCell>
        <mxCell id="MrkqH63gfhFUiDKeLNYQ-42" value="&lt;b&gt;Roles&lt;/b&gt;" style="rounded=0;whiteSpace=wrap;html=1;align=left;" parent="MrkqH63gfhFUiDKeLNYQ-1" vertex="1">
          <mxGeometry x="620" y="360" width="120" height="20" as="geometry" />
        </mxCell>
        <mxCell id="MrkqH63gfhFUiDKeLNYQ-43" value="- Id" style="rounded=0;whiteSpace=wrap;html=1;align=left;" parent="MrkqH63gfhFUiDKeLNYQ-1" vertex="1">
          <mxGeometry x="620" y="380" width="120" height="15" as="geometry" />
        </mxCell>
        <mxCell id="MrkqH63gfhFUiDKeLNYQ-44" value="- ..." style="rounded=0;whiteSpace=wrap;html=1;align=left;" parent="MrkqH63gfhFUiDKeLNYQ-1" vertex="1">
          <mxGeometry x="620" y="395" width="120" height="15" as="geometry" />
        </mxCell>
        <mxCell id="MrkqH63gfhFUiDKeLNYQ-45" value="N:1" style="text;html=1;align=center;verticalAlign=middle;resizable=0;points=[];autosize=1;" parent="MrkqH63gfhFUiDKeLNYQ-1" vertex="1">
          <mxGeometry x="580" y="370" width="30" height="20" as="geometry" />
        </mxCell>
        <mxCell id="MrkqH63gfhFUiDKeLNYQ-46" value="- Street" style="rounded=0;whiteSpace=wrap;html=1;align=left;fillColor=#f5f5f5;strokeColor=#666666;fontColor=#333333;" parent="MrkqH63gfhFUiDKeLNYQ-1" vertex="1">
          <mxGeometry x="40" y="380" width="120" height="15" as="geometry" />
        </mxCell>
        <mxCell id="MrkqH63gfhFUiDKeLNYQ-47" value="- Number" style="rounded=0;whiteSpace=wrap;html=1;align=left;fillColor=#f5f5f5;strokeColor=#666666;fontColor=#333333;" parent="MrkqH63gfhFUiDKeLNYQ-1" vertex="1">
          <mxGeometry x="40" y="395" width="120" height="15" as="geometry" />
        </mxCell>
        <mxCell id="MrkqH63gfhFUiDKeLNYQ-48" value="- PostalCode" style="rounded=0;whiteSpace=wrap;html=1;align=left;fillColor=#f5f5f5;strokeColor=#666666;fontColor=#333333;" parent="MrkqH63gfhFUiDKeLNYQ-1" vertex="1">
          <mxGeometry x="40" y="410" width="120" height="15" as="geometry" />
        </mxCell>
        <mxCell id="MrkqH63gfhFUiDKeLNYQ-49" value="- City" style="rounded=0;whiteSpace=wrap;html=1;align=left;fillColor=#f5f5f5;strokeColor=#666666;fontColor=#333333;" parent="MrkqH63gfhFUiDKeLNYQ-1" vertex="1">
          <mxGeometry x="40" y="425" width="120" height="15" as="geometry" />
        </mxCell>
        <mxCell id="MrkqH63gfhFUiDKeLNYQ-50" value="- Country" style="rounded=0;whiteSpace=wrap;html=1;align=left;fillColor=#f5f5f5;strokeColor=#666666;fontColor=#333333;" parent="MrkqH63gfhFUiDKeLNYQ-1" vertex="1">
          <mxGeometry x="40" y="440" width="120" height="15" as="geometry" />
        </mxCell>
        <mxCell id="MrkqH63gfhFUiDKeLNYQ-51" value="1:N" style="text;html=1;align=center;verticalAlign=middle;resizable=0;points=[];autosize=1;" parent="MrkqH63gfhFUiDKeLNYQ-1" vertex="1">
          <mxGeometry x="230" y="292.5" width="30" height="20" as="geometry" />
        </mxCell>
        <mxCell id="MrkqH63gfhFUiDKeLNYQ-52" value="1:N" style="text;html=1;align=center;verticalAlign=middle;resizable=0;points=[];autosize=1;" parent="MrkqH63gfhFUiDKeLNYQ-1" vertex="1">
          <mxGeometry x="180" y="185" width="30" height="20" as="geometry" />
        </mxCell>
      </root>
    </mxGraphModel>
  </diagram>
</mxfile>
